# AST/ASF file generated using VICON BodyLanguage
# -----------------------------------------------
:version 1.10
:name VICON
:units
  mass 1.0
  length 0.45
  angle deg
:documentation
   .ast/.asf automatically generated from VICON data using
   VICON BodyBuilder and BodyLanguage model FoxedUp or BRILLIANT.MOD
:root
   order TX TY TZ RX RY RZ
   axis XYZ
   position 0 0 0  
   orientation 0 0 0 
:bonedata
  begin
     id 1 
     name lhipjoint
     direction 0.612567 -0.751349 0.245431 
     length 2.42285 
     axis 0 0 0  XYZ
  end
  begin
     id 2 
     name lfemur
     direction 0.34202 -0.939693 0  
     length 7.11304  
     axis 0 0 20  XYZ
    dof rx ry rz
    limits (-160.0 20.0)
           (-70.0 70.0)
           (-60.0 70.0)
  end
  begin
     id 3 
     name ltibia
     direction 0.34202 -0.939693 0   
     length 7.84529   
     axis 0 0 20   XYZ
    dof rx
    limits (-10.0 170.0)
  end
  begin
     id 4 
     name lfoot
     direction 0.0779239 -0.214094 0.9737   
     length 1.97176   
     axis -90 7.62852e-016 20   XYZ
    dof rx rz
    limits (-45.0 90.0)
           (-70.0 20.0)
  end
  begin
     id 5 
     name ltoes
     direction 1.53565e-011 -4.21709e-011 1   
     length 0.993197   
     axis -90 7.62852e-016 20   XYZ
    dof rx
    limits (-90.0 20.0)
  end
  begin
     id 6 
     name rhipjoint
     direction -0.665722 -0.709315 0.231701   
     length 2.56642  
     axis 0 0 0  XYZ 
  end
  begin
     id 7 
     name rfemur
     direction -0.34202 -0.939693 0   
     length 7.32108   
     axis 0 0 -20   XYZ
    dof rx ry rz
    limits (-160.0 20.0)
           (-70.0 70.0)
           (-70.0 60.0)
  end
  begin
     id 8 
     name rtibia
     direction -0.34202 -0.939693 0   
     length 7.81254   
     axis 0 0 -20   XYZ
    dof rx
    limits (-10.0 170.0)
 end
 begin
     id 9 
     name rfoot
     direction -0.0832806 -0.228812 0.969902   
     length 2.08278  
     axis -90 -7.62852e-016 -20   XYZ
    dof rx rz
    limits (-45.0 90.0)
           (-20.0 70.0)
  end
  begin
     id 10 
     name rtoes
     direction -1.53589e-011 -4.22086e-011 1   
     length 1.04609   
     axis -90 -7.62852e-016 -20   XYZ
    dof rx
    limits (-90.0 20.0)
  end
  begin
     id 11 
     name lowerback
     direction -0.00506013 0.988403 -0.151766   
     length 2.01978   
     axis 0 0 0   XYZ
    dof rx ry rz
    limits (-20.0 45.0)
           (-30.0 30.0)
           (-30.0 30.0)
  end
  begin
     id 12 
     name upperback
     direction -0.00836389 0.99968 0.0238859   
     length 2.01276   
     axis 0 0 0   XYZ
    dof rx ry rz
    limits (-20.0 45.0)
           (-30.0 30.0)
           (-30.0 30.0)
  end
  begin
     id 13 
     name thorax
     direction -0.00684136 0.995386 0.0957043   
     length 2.07303   
     axis 0 0 0   XYZ
    dof rx ry rz
    limits (-20.0 45.0)
           (-30.0 30.0)
           (-30.0 30.0)
  end
  begin
     id 14 
     name lowerneck
     direction -0.0161045 0.999661 0.0204485   
     length 1.91243   
     axis 0 0 0   XYZ
    dof rx ry rz
    limits (-20.0 45.0)
           (-30.0 30.0)
           (-30.0 30.0)
  end
  begin
     id 15 
     name upperneck
     direction 0.0553583 0.990946 -0.122319   
     length 1.91574   
     axis 0 0 0   XYZ
    dof rx ry rz
    limits (-20.0 45.0)
           (-30.0 30.0)
           (-30.0 30.0)
  end
  begin
     id 16
     name head
     direction 0.0180273 0.998839 -0.0446756  
     length 1.92693  
     axis 0 0 0   XYZ
    dof rx ry rz
    limits (-20.0 45.0)
           (-30.0 30.0)
           (-30.0 30.0)
  end
  begin
     id 17 
     name lclavicle
     direction 0.945646 0.319323 -0.0615358  
     length 4.0076  
     axis 0 0 0   XYZ
    dof ry rz
    limits (-20.0 10.0)
           (0.0 20.0)
  end
  begin
     id 18 
     name lhumerus
     direction 1 -4.48967e-011 -2.79996e-027   
     length 5.64147   
     axis 180 -30 -90   XYZ
    dof rx ry rz
    limits (-60.0 90.0)
           (-90.0 90.0)
           (-90.0 90.0)
  end
  begin
     id 19
     name lradius
     direction 1 -4.48976e-011 -9.5122e-027   
     length 2.86444   
     axis 180 -30 -90   XYZ
    dof rx
    limits (-10.0 170.0)
  end
  begin
     id 20
     name lwrist
     direction 1 -4.48983e-011 -1.24047e-026   
     length 1.43222   
     axis 9.05591e-015 90 90   XYZ
    dof ry
    limits (-180.0 0.0)
 end
  begin
     id 21 
     name lhand
     direction 1 -4.4892e-011 -2.48094e-026   
     length 0.722123   
     axis 1.58305e-014 90 90   XYZ
    dof rx rz
    limits (-90.0 90.0)
           (-45.0 45.0)
  end
  begin
     id 22 
     name lfingers
     direction 1 -4.48895e-011 -4.96187e-026   
     length 0.582194   
     axis 3.1661e-014 90 90   XYZ
    dof rx
    limits (0.0 90.0)
  end
  begin
     id 23
     name lthumb
     direction 0.707107 -6.34961e-011 0.707107   
     length 0.835918   
     axis -90 45 2.85299e-015   XYZ
    dof rx rz
    limits (-45.0 45.0)
           (-45.0 45.0)
  end
  begin
     id 24 
     name rclavicle
     direction -0.932635 0.324218 -0.15835   
     length 3.65819  
     axis 0 0 0   XYZ 
    dof ry rz
    limits (-10.0 20.0)
           (-20.0 0.0)
  end
  begin
     id 25 
     name rhumerus
     direction -1 -4.48965e-011 -4.02296e-027  
     length 5.44729   
     axis 180 30 90   XYZ
    dof rx ry rz
    limits (-90.0 60.0)
           (-90.0 90.0)
           (-90.0 90.0)
  end
  begin
     id 26 
     name rradius
     direction -1 -4.48957e-011 -8.81087e-027   
     length 3.08821   
     axis 180 30 90   XYZ
    dof rx
    limits (-10.0 170.0)
  end
  begin
     id 27 
     name rwrist
     direction -1 -4.49015e-011 -1.24047e-026   
     length 1.5441   
     axis 9.05591e-015 -90 -90   XYZ
    dof ry
    limits (-180.0 0.0)
  end
  begin
     id 28
     name rhand
     direction -1 -4.4891e-011 -2.48094e-026   
     length 0.821049   
     axis 1.58305e-014 -90 -90   XYZ
    dof rx rz
    limits (-90.0 90.0)
           (-45.0 45.0)
  end
  begin
     id 29
     name rfingers
     direction -1 -4.48985e-011 -4.96187e-026   
     length 0.661951   
     axis 3.1661e-014 -90 -90   XYZ
    dof rx
    limits (0.0 90.0)
  end
  begin
     id 30
     name rthumb
     direction -0.707107 -6.34906e-011 0.707107   
     length 0.950433   
     axis -90 -45 -2.85299e-015   XYZ
    dof rx rz
    limits (-45.0 45.0)
           (-45.0 45.0)
  end
:hierarchy
  begin
    root lhipjoint rhipjoint lowerback
    lhipjoint lfemur
    lfemur ltibia
    ltibia lfoot
    lfoot ltoes
    rhipjoint rfemur
    rfemur rtibia
    rtibia rfoot
    rfoot rtoes
    lowerback upperback
    upperback thorax
    thorax lowerneck lclavicle rclavicle
    lowerneck upperneck
    upperneck head
    lclavicle lhumerus
    lhumerus lradius
    lradius lwrist
    lwrist lhand lthumb
    lhand lfingers
    rclavicle rhumerus
    rhumerus rradius
    rradius rwrist
    rwrist rhand rthumb
    rhand rfingers
  end

#!OML:ASF F:\VICON\USERDATA\INSTALL\rory3\rory3.ASF
:FULLY-SPECIFIED
:DEGREES
303
root 3.09046 18.387 -1.04909 -103.138 78.6841 -113.995
lowerback 5.08088 -0.379706 3.77447
upperback -5.4468 -0.0798903 0.13975
thorax -8.61213 -0.238329 -1.96446
lowerneck 17.5565 1.12048 -8.47686
upperneck -30.3687 4.70253 14.7809
head -13.7929 1.44471 6.61874
rclavicle -1.98785e-016 -6.36111e-015
rhumerus -21.4353 18.8435 -95.714
rradius 131.727
rwrist 16.8293
rhand 26.4688 -0.100394
rfingers 7.12502
rthumb 50.5062 -21.0533
lclavicle -1.98785e-016 -6.36111e-015
lhumerus -15.1506 -43.4216 99.2791
lradius 125.344
lwrist 15.9503
lhand -18.5445 24.1321
lfingers 7.12502
lthumb 7.74478 53.9703
rfemur -13.4665 -9.69621 27.2041
rtibia 14.3245
rfoot 4.73308 -3.44235
rtoes -14.7049
lfemur -4.61041 -2.20802 -10.7215
ltibia -1.43125e-014
lfoot -8.5106 6.6072
ltoes -13.6103
304
root 3.08818 18.3849 -1.04693 -102.802 78.7545 -113.619
lowerback 5.05579 -0.377653 3.8564
upperback -5.37907 -0.0749157 0.133714
thorax -8.52412 -0.239563 -2.01743
lowerneck 17.559 1.02275 -8.44889
upperneck -30.3722 4.58571 14.8433
head -13.7767 1.38172 6.65966
rclavicle -7.10655e-015 3.49861e-014
rhumerus -21.2401 18.8988 -95.703
rradius 131.648
rwrist 16.7893
rhand 26.5193 -0.27166
rfingers 7.12502
rthumb 50.5523 -21.1995
lclavicle -7.10655e-015 3.49861e-014
lhumerus -15.0801 -43.3462 99.1008
lradius 125.382
lwrist 15.9517
lhand -18.495 24.174
lfingers 7.12502
lthumb 7.79261 54.0104
rfemur -13.4281 -9.66301 27.1813
rtibia 14.329
rfoot 4.67885 -3.41877
rtoes -14.8246
lfemur -4.56463 -2.13178 -10.7658
ltibia 1.59028e-015
lfoot -8.45868 6.57197
ltoes -13.5781
305
root 3.08873 18.3827 -1.04428 -102.304 78.8258 -113.111
lowerback 5.12303 -0.394516 3.88801
upperback -5.44714 -0.0850186 0.171962
thorax -8.63902 -0.247305 -1.99337
lowerneck 17.7219 0.942989 -8.46008
upperneck -30.3451 4.45805 14.9045
head -13.7826 1.30944 6.71097
rclavicle 1.08338e-014 -4.77083e-015
rhumerus -21.3029 19.0447 -95.7522
rradius 131.61
rwrist 16.6789
rhand 26.605 -0.424002
rfingers 7.12502
rthumb 50.6305 -21.3093
lclavicle 1.08338e-014 -4.77083e-015
lhumerus -15.2948 -43.1826 99.1489
lradius 125.418
lwrist 15.9016
lhand -18.4631 24.1827
lfingers 7.12502
lthumb 7.82342 54.018
rfemur -13.4425 -9.67822 27.1754
rtibia 14.3718
rfoot 4.51008 -3.26885
rtoes -15.6471
lfemur -4.53435 -2.02561 -10.8009
ltibia -7.95139e-016
lfoot -8.47471 6.52591
ltoes -13.482
306
root 3.0891 18.3816 -1.04311 -101.797 78.9601 -112.591
lowerback 5.16192 -0.37886 3.91812
upperback -5.46509 -0.0599682 0.156232
thorax -8.68036 -0.238489 -2.03006
lowerneck 17.7796 0.812574 -8.41554
upperneck -30.3151 4.2764 14.9449
head -13.7522 1.21429 6.74848
rclavicle -2.98177e-016 3.18055e-015
rhumerus -21.2241 19.1316 -95.7809
rradius 131.582
rwrist 16.6735
rhand 26.6664 -0.468575
rfingers 7.12502
rthumb 50.6866 -21.3232
lclavicle -2.98177e-016 3.18055e-015
lhumerus -15.5566 -43.1998 99.2031
lradius 125.541
lwrist 15.7832
lhand -18.5507 24.2327
lfingers 7.12502
lthumb 7.7388 54.0711
rfemur -13.4679 -9.6984 27.0859
rtibia 14.4261
rfoot 4.24058 -3.07871
rtoes -15.8588
lfemur -4.48538 -1.90892 -10.9201
ltibia 1.19271e-014
lfoot -8.53247 6.51855
ltoes -13.5866
307
root 3.08927 18.3812 -1.04063 -101.094 79.0646 -111.894
lowerback 6.63923 -0.446387 4.21425
upperback -6.34774 -0.0201851 -0.00500609
thorax -10.5416 -0.288036 -2.37597
lowerneck 18.0887 0.760223 -8.3738
upperneck -29.5544 4.14167 15.2337
head -13.4827 1.08262 6.83467
rclavicle 3.97569e-015 -6.36111e-015
rhumerus -22.6936 19.1177 -96.6104
rradius 131.693
rwrist 16.9017
rhand 26.4818 -0.518676
rfingers 7.12502
rthumb 50.518 -21.4651
lclavicle 3.97569e-015 -6.36111e-015
lhumerus -17.9129 -43.1348 100.39
lradius 125.898
lwrist 15.587
lhand -18.6406 24.1678
lfingers 7.12502
lthumb 7.65202 54.0093
rfemur -13.5181 -9.57283 27.0342
rtibia 14.4996
rfoot 4.08841 -2.90322
rtoes -16.9509
lfemur -4.45543 -1.76289 -10.9955
ltibia -5.56597e-015
lfoot -8.59791 6.51129
ltoes -13.6019
308
root 3.08971 18.3798 -1.03836 -100.723 79.149 -111.502
lowerback 5.1603 -0.367117 3.92657
upperback -5.4243 -0.038311 0.24682
thorax -8.6332 -0.224 -1.94158
lowerneck 17.6929 0.597893 -8.65898
upperneck -30.1849 3.94467 15.2282
head -13.6316 1.06 6.95669
rclavicle 4.17448e-015 1.11319e-014
rhumerus -20.9844 19.4669 -95.6598
rradius 131.493
rwrist 16.8246
rhand 26.4166 -0.597813
rfingers 7.12502
rthumb 50.4584 -21.5765
lclavicle 4.17448e-015 1.11319e-014
lhumerus -15.8322 -43.1291 99.2528
lradius 125.744
lwrist 15.8811
lhand -18.7498 24.0408
lfingers 7.12502
lthumb 7.54665 53.8862
rfemur -13.5188 -9.45176 26.9762
rtibia 14.5628
rfoot 3.97779 -2.83824
rtoes -16.9181
lfemur -4.41784 -1.68341 -11.0645
ltibia -1.51076e-014
lfoot -8.62779 6.52898
ltoes -13.3041
309
root 3.08943 18.3797 -1.03473 -100.403 79.3771 -111.151
lowerback 6.82231 -0.477391 4.10594
upperback -6.45223 -0.056647 0.0365523
thorax -10.7707 -0.300718 -2.26498
lowerneck 18.2097 0.575983 -8.5512
upperneck -29.281 3.81128 15.4612
head -13.3472 0.91392 6.99938
rclavicle -4.21175e-015 2.22639e-014
rhumerus -22.7354 19.4053 -96.6699
rradius 131.543
rwrist 16.9801
rhand 26.3302 -0.570783
rfingers 7.12502
rthumb 50.3796 -21.5919
lclavicle -4.21175e-015 2.22639e-014
lhumerus -17.9691 -42.8389 100.296
lradius 125.773
lwrist 15.9621
lhand -18.7301 23.95
lfingers 7.12502
lthumb 7.56563 53.7947
rfemur -13.504 -9.15061 26.7414
rtibia 14.6133
rfoot 3.71442 -2.96355
rtoes -15.7359
lfemur -4.36512 -1.59013 -11.2898
ltibia 1.51076e-014
lfoot -8.60435 6.55068
ltoes -13.4744
310
root 3.08703 18.3774 -1.03276 -100.073 79.4983 -110.814
lowerback 6.76466 -0.474851 4.08887
upperback -6.40676 -0.0571931 0.0702508
thorax -10.6843 -0.296174 -2.21889
lowerneck 18.2492 0.467315 -8.55432
upperneck -29.3153 3.6498 15.4727
head -13.3429 0.838332 7.03415
rclavicle 1.32316e-014 6.36111e-015
rhumerus -22.5578 19.4712 -96.5705
rradius 131.455
rwrist 16.9442
rhand 26.3218 -0.401044
rfingers 7.12502
rthumb 50.3719 -21.4263
lclavicle 1.32316e-014 6.36111e-015
lhumerus -17.9628 -42.7713 100.244
lradius 125.855
lwrist 16.0386
lhand -18.7444 23.9015
lfingers 7.12502
lthumb 7.55186 53.7467
rfemur -13.4969 -9.04026 26.6525
rtibia 14.5846
rfoot 3.61629 -3.00496
rtoes -15.1094
lfemur -4.34325 -1.51494 -11.3971
ltibia 1.19271e-014
lfoot -8.59303 6.54607
ltoes -13.5598
311
root 3.08527 18.3754 -1.03125 -99.5688 79.5407 -110.287
lowerback 6.67964 -0.494187 4.17588
upperback -6.30315 -0.0781217 0.121222
thorax -10.5191 -0.306905 -2.20947
lowerneck 18.1902 0.381608 -8.63672
upperneck -29.3521 3.53509 15.5694
head -13.3287 0.787456 7.11008
rclavicle -1.07592e-014 1.27222e-014
rhumerus -22.2451 19.6212 -96.4751
rradius 131.339
rwrist 16.9825
rhand 26.3156 -0.239915
rfingers 7.12502
rthumb 50.3662 -21.2682
lclavicle -1.07592e-014 1.27222e-014
lhumerus -18.1101 -42.7116 100.223
lradius 126.129
lwrist 15.9547
lhand -18.6131 23.8728
lfingers 7.12502
lthumb 7.67862 53.7134
rfemur -13.4304 -9.02906 26.6584
rtibia 14.4584
rfoot 3.66828 -2.92297
rtoes -15.9938
lfemur -4.29899 -1.42122 -11.413
ltibia 2.22639e-014
lfoot -8.61384 6.523
ltoes -13.5322
312
root 3.08269 18.3689 -1.02818 -99.0828 79.5046 -109.782
lowerback 6.74868 -0.555658 4.32653
upperback -6.31118 -0.13252 0.194008
thorax -10.5759 -0.342301 -2.20713
lowerneck 18.219 0.288848 -8.65854
upperneck -29.3461 3.38779 15.5947
head -13.3079 0.71769 7.14834
rclavicle 3.44146e-015 6.36111e-015
rhumerus -22.1643 19.8522 -96.5302
rradius 131.257
rwrist 16.9729
rhand 26.5198 -0.192706
rfingers 7.12502
rthumb 50.5527 -21.1203
lclavicle 3.44146e-015 6.36111e-015
lhumerus -18.2081 -42.6782 100.158
lradius 126.251
lwrist 15.802
lhand -18.5532 23.9242
lfingers 7.12502
lthumb 7.73642 53.7627
rfemur -13.3086 -9.12476 26.7776
rtibia 14.2506
rfoot 3.73544 -2.85178
rtoes -16.3893
lfemur -4.2745 -1.34184 -11.3381
ltibia -7.15625e-015
lfoot -8.63407 6.49529
ltoes -13.5904
